<mxfile host="app.diagrams.net" modified="2021-02-03T11:57:20.720Z" agent="5.0 (Windows NT 10.0; Win64; x64) AppleWebKit/537.36 (KHTML, like Gecko) Chrome/78.0.3904.70 Safari/537.36" etag="LqAvG7g0Fmdo3fkoUFkk" version="14.2.9" type="github">
  <diagram id="Q9xe0dv9tIUsfLBFdXYE" name="第 1 页">
    <mxGraphModel dx="1673" dy="856" grid="1" gridSize="10" guides="1" tooltips="1" connect="1" arrows="1" fold="1" page="1" pageScale="1" pageWidth="827" pageHeight="1169" math="0" shadow="0">
      <root>
        <mxCell id="0" />
        <mxCell id="1" parent="0" />
        <mxCell id="CNCv2UfuMe8m7gtDJGFs-4" value="" style="edgeStyle=orthogonalEdgeStyle;rounded=0;sketch=1;orthogonalLoop=1;jettySize=auto;html=1;strokeColor=#82b366;fillColor=#d5e8d4;" edge="1" parent="1" source="CNCv2UfuMe8m7gtDJGFs-1" target="CNCv2UfuMe8m7gtDJGFs-3">
          <mxGeometry relative="1" as="geometry" />
        </mxCell>
        <mxCell id="CNCv2UfuMe8m7gtDJGFs-1" value="管理员" style="shape=umlActor;verticalLabelPosition=bottom;verticalAlign=top;html=1;outlineConnect=0;sketch=1;strokeColor=#82b366;fillColor=#d5e8d4;" vertex="1" parent="1">
          <mxGeometry x="60" y="178.75" width="30" height="60" as="geometry" />
        </mxCell>
        <mxCell id="CNCv2UfuMe8m7gtDJGFs-17" value="" style="edgeStyle=orthogonalEdgeStyle;rounded=0;sketch=1;orthogonalLoop=1;jettySize=auto;html=1;fontSize=25;strokeColor=#82b366;fillColor=#d5e8d4;" edge="1" parent="1" source="CNCv2UfuMe8m7gtDJGFs-3" target="CNCv2UfuMe8m7gtDJGFs-16">
          <mxGeometry relative="1" as="geometry" />
        </mxCell>
        <mxCell id="CNCv2UfuMe8m7gtDJGFs-34" style="rounded=0;sketch=1;orthogonalLoop=1;jettySize=auto;html=1;fontSize=14;entryX=0.381;entryY=-0.014;entryDx=0;entryDy=0;entryPerimeter=0;exitX=0.176;exitY=0.964;exitDx=0;exitDy=0;exitPerimeter=0;strokeColor=#994C00;" edge="1" parent="1" source="CNCv2UfuMe8m7gtDJGFs-3" target="CNCv2UfuMe8m7gtDJGFs-21">
          <mxGeometry relative="1" as="geometry">
            <Array as="points">
              <mxPoint x="246" y="317" />
            </Array>
          </mxGeometry>
        </mxCell>
        <mxCell id="CNCv2UfuMe8m7gtDJGFs-3" value="通用校验" style="whiteSpace=wrap;html=1;verticalAlign=top;sketch=1;strokeColor=#82b366;fillColor=#d5e8d4;" vertex="1" parent="1">
          <mxGeometry x="220" y="197.5" width="150" height="22.5" as="geometry" />
        </mxCell>
        <mxCell id="CNCv2UfuMe8m7gtDJGFs-39" style="edgeStyle=orthogonalEdgeStyle;rounded=0;sketch=1;orthogonalLoop=1;jettySize=auto;html=1;fontSize=14;exitX=0.75;exitY=0;exitDx=0;exitDy=0;entryX=0;entryY=0.5;entryDx=0;entryDy=0;strokeColor=#82b366;fillColor=#d5e8d4;" edge="1" parent="1" source="CNCv2UfuMe8m7gtDJGFs-5" target="CNCv2UfuMe8m7gtDJGFs-42">
          <mxGeometry relative="1" as="geometry">
            <mxPoint x="703" y="210" as="targetPoint" />
          </mxGeometry>
        </mxCell>
        <mxCell id="CNCv2UfuMe8m7gtDJGFs-95" style="edgeStyle=orthogonalEdgeStyle;rounded=0;sketch=1;orthogonalLoop=1;jettySize=auto;html=1;exitX=0.75;exitY=1;exitDx=0;exitDy=0;fontSize=14;entryX=0;entryY=0.417;entryDx=0;entryDy=0;entryPerimeter=0;fontColor=#006600;labelBorderColor=none;" edge="1" parent="1" source="CNCv2UfuMe8m7gtDJGFs-5" target="CNCv2UfuMe8m7gtDJGFs-96">
          <mxGeometry relative="1" as="geometry">
            <mxPoint x="702.5" y="600" as="targetPoint" />
          </mxGeometry>
        </mxCell>
        <mxCell id="CNCv2UfuMe8m7gtDJGFs-5" value="" style="rounded=1;whiteSpace=wrap;html=1;sketch=1;fillColor=#e1d5e7;strokeColor=#9673a6;" vertex="1" parent="1">
          <mxGeometry x="500" y="320" width="270" height="180" as="geometry" />
        </mxCell>
        <mxCell id="CNCv2UfuMe8m7gtDJGFs-6" value="&lt;pre style=&quot;font-family: &amp;#34;courier new&amp;#34; , monospace ; font-size: 10.5pt&quot;&gt;&lt;span style=&quot;background-color: rgb(255 , 255 , 255)&quot;&gt;&lt;font color=&quot;#003300&quot;&gt;&lt;b&gt;TaskRequestManager&lt;/b&gt;&lt;/font&gt;&lt;/span&gt;&lt;/pre&gt;" style="text;html=1;fillColor=none;align=center;verticalAlign=middle;whiteSpace=wrap;rounded=0;sketch=1;strokeColor=#994C00;" vertex="1" parent="1">
          <mxGeometry x="545" y="330" width="180" height="20" as="geometry" />
        </mxCell>
        <mxCell id="CNCv2UfuMe8m7gtDJGFs-7" value="物流" style="html=1;whiteSpace=wrap;shape=isoCube2;backgroundOutline=1;isoAngle=15;sketch=1;fillColor=#dae8fc;strokeColor=#994C00;" vertex="1" parent="1">
          <mxGeometry x="520" y="360" width="40" height="50" as="geometry" />
        </mxCell>
        <mxCell id="CNCv2UfuMe8m7gtDJGFs-8" value="仓库" style="html=1;whiteSpace=wrap;shape=isoCube2;backgroundOutline=1;isoAngle=15;sketch=1;fillColor=#dae8fc;strokeColor=#994C00;" vertex="1" parent="1">
          <mxGeometry x="580" y="360" width="40" height="50" as="geometry" />
        </mxCell>
        <mxCell id="CNCv2UfuMe8m7gtDJGFs-9" value="logo" style="html=1;whiteSpace=wrap;shape=isoCube2;backgroundOutline=1;isoAngle=15;sketch=1;fillColor=#dae8fc;strokeColor=#994C00;" vertex="1" parent="1">
          <mxGeometry x="640" y="360" width="36.5" height="50" as="geometry" />
        </mxCell>
        <mxCell id="CNCv2UfuMe8m7gtDJGFs-10" value="logo" style="html=1;whiteSpace=wrap;shape=isoCube2;backgroundOutline=1;isoAngle=15;sketch=1;fillColor=#dae8fc;strokeColor=#994C00;" vertex="1" parent="1">
          <mxGeometry x="520" y="430" width="40" height="50" as="geometry" />
        </mxCell>
        <mxCell id="CNCv2UfuMe8m7gtDJGFs-11" value="分成" style="html=1;whiteSpace=wrap;shape=isoCube2;backgroundOutline=1;isoAngle=15;sketch=1;fillColor=#dae8fc;strokeColor=#994C00;" vertex="1" parent="1">
          <mxGeometry x="580" y="430" width="40" height="50" as="geometry" />
        </mxCell>
        <mxCell id="CNCv2UfuMe8m7gtDJGFs-12" value="设置" style="html=1;whiteSpace=wrap;shape=isoCube2;backgroundOutline=1;isoAngle=15;sketch=1;fillColor=#dae8fc;strokeColor=#994C00;" vertex="1" parent="1">
          <mxGeometry x="650" y="430" width="40" height="50" as="geometry" />
        </mxCell>
        <mxCell id="CNCv2UfuMe8m7gtDJGFs-13" value="..." style="text;html=1;fillColor=#dae8fc;align=center;verticalAlign=middle;whiteSpace=wrap;rounded=0;sketch=1;strokeWidth=4;fontStyle=1;fontSize=25;" vertex="1" parent="1">
          <mxGeometry x="705" y="440" width="40" height="20" as="geometry" />
        </mxCell>
        <mxCell id="CNCv2UfuMe8m7gtDJGFs-15" value="权限" style="html=1;whiteSpace=wrap;shape=isoCube2;backgroundOutline=1;isoAngle=15;sketch=1;fillColor=#dae8fc;strokeColor=#994C00;" vertex="1" parent="1">
          <mxGeometry x="705" y="360" width="36.5" height="50" as="geometry" />
        </mxCell>
        <mxCell id="CNCv2UfuMe8m7gtDJGFs-18" style="edgeStyle=orthogonalEdgeStyle;rounded=0;sketch=1;orthogonalLoop=1;jettySize=auto;html=1;fontSize=25;strokeColor=#82b366;fillColor=#d5e8d4;" edge="1" parent="1" source="CNCv2UfuMe8m7gtDJGFs-16" target="CNCv2UfuMe8m7gtDJGFs-5">
          <mxGeometry relative="1" as="geometry">
            <Array as="points">
              <mxPoint x="635" y="209" />
            </Array>
          </mxGeometry>
        </mxCell>
        <mxCell id="CNCv2UfuMe8m7gtDJGFs-16" value="查询&lt;br&gt;TaskHandle" style="shape=hexagon;perimeter=hexagonPerimeter2;whiteSpace=wrap;html=1;fixedSize=1;verticalAlign=top;sketch=1;strokeColor=#82b366;fillColor=#d5e8d4;" vertex="1" parent="1">
          <mxGeometry x="480" y="184.38" width="130" height="51.25" as="geometry" />
        </mxCell>
        <mxCell id="CNCv2UfuMe8m7gtDJGFs-32" style="edgeStyle=orthogonalEdgeStyle;rounded=0;sketch=1;orthogonalLoop=1;jettySize=auto;html=1;entryX=0;entryY=0.5;entryDx=0;entryDy=0;fontSize=14;shape=link;strokeColor=#994C00;" edge="1" parent="1" source="CNCv2UfuMe8m7gtDJGFs-21" target="CNCv2UfuMe8m7gtDJGFs-5">
          <mxGeometry relative="1" as="geometry" />
        </mxCell>
        <mxCell id="CNCv2UfuMe8m7gtDJGFs-21" value="" style="rounded=1;whiteSpace=wrap;html=1;sketch=1;fillColor=#dae8fc;strokeColor=#6c8ebf;" vertex="1" parent="1">
          <mxGeometry x="135" y="320" width="270" height="180" as="geometry" />
        </mxCell>
        <mxCell id="CNCv2UfuMe8m7gtDJGFs-35" style="edgeStyle=none;rounded=0;sketch=1;orthogonalLoop=1;jettySize=auto;html=1;entryX=0.797;entryY=1.155;entryDx=0;entryDy=0;fontSize=14;entryPerimeter=0;exitX=0.774;exitY=0.005;exitDx=0;exitDy=0;exitPerimeter=0;strokeColor=#994C00;" edge="1" parent="1" source="CNCv2UfuMe8m7gtDJGFs-21" target="CNCv2UfuMe8m7gtDJGFs-3">
          <mxGeometry relative="1" as="geometry" />
        </mxCell>
        <mxCell id="CNCv2UfuMe8m7gtDJGFs-22" value="&lt;pre style=&quot;font-family: &amp;quot;courier new&amp;quot; , monospace ; font-size: 10.5pt&quot;&gt;&lt;pre style=&quot;font-family: &amp;quot;courier new&amp;quot; , monospace ; font-size: 10.5pt&quot;&gt;&lt;span style=&quot;background-color: rgb(255 , 255 , 255)&quot;&gt;&lt;font color=&quot;#003366&quot;&gt;ConfigTaskTypeEnum&lt;/font&gt;&lt;/span&gt;&lt;/pre&gt;&lt;/pre&gt;" style="text;html=1;align=center;verticalAlign=middle;whiteSpace=wrap;rounded=0;sketch=1;fontStyle=1;fillColor=#FFFFFF;strokeColor=#994C00;" vertex="1" parent="1">
          <mxGeometry x="180" y="330" width="180" height="20" as="geometry" />
        </mxCell>
        <mxCell id="CNCv2UfuMe8m7gtDJGFs-23" value="物流" style="html=1;whiteSpace=wrap;shape=isoCube2;backgroundOutline=1;isoAngle=15;sketch=1;fillColor=#e1d5e7;strokeColor=#994C00;" vertex="1" parent="1">
          <mxGeometry x="155" y="360" width="40" height="50" as="geometry" />
        </mxCell>
        <mxCell id="CNCv2UfuMe8m7gtDJGFs-24" value="仓库" style="html=1;whiteSpace=wrap;shape=isoCube2;backgroundOutline=1;isoAngle=15;sketch=1;fillColor=#e1d5e7;strokeColor=#994C00;" vertex="1" parent="1">
          <mxGeometry x="215" y="360" width="40" height="50" as="geometry" />
        </mxCell>
        <mxCell id="CNCv2UfuMe8m7gtDJGFs-25" value="logo" style="html=1;whiteSpace=wrap;shape=isoCube2;backgroundOutline=1;isoAngle=15;sketch=1;fillColor=#e1d5e7;strokeColor=#994C00;" vertex="1" parent="1">
          <mxGeometry x="275" y="360" width="36.5" height="50" as="geometry" />
        </mxCell>
        <mxCell id="CNCv2UfuMe8m7gtDJGFs-26" value="logo" style="html=1;whiteSpace=wrap;shape=isoCube2;backgroundOutline=1;isoAngle=15;sketch=1;fillColor=#e1d5e7;strokeColor=#994C00;" vertex="1" parent="1">
          <mxGeometry x="155" y="430" width="40" height="50" as="geometry" />
        </mxCell>
        <mxCell id="CNCv2UfuMe8m7gtDJGFs-27" value="分成" style="html=1;whiteSpace=wrap;shape=isoCube2;backgroundOutline=1;isoAngle=15;sketch=1;fillColor=#e1d5e7;strokeColor=#994C00;" vertex="1" parent="1">
          <mxGeometry x="215" y="430" width="40" height="50" as="geometry" />
        </mxCell>
        <mxCell id="CNCv2UfuMe8m7gtDJGFs-28" value="设置" style="html=1;whiteSpace=wrap;shape=isoCube2;backgroundOutline=1;isoAngle=15;sketch=1;fillColor=#e1d5e7;strokeColor=#994C00;" vertex="1" parent="1">
          <mxGeometry x="285" y="430" width="40" height="50" as="geometry" />
        </mxCell>
        <mxCell id="CNCv2UfuMe8m7gtDJGFs-29" value="..." style="text;html=1;align=center;verticalAlign=middle;whiteSpace=wrap;rounded=0;sketch=1;strokeWidth=4;fontStyle=1;fontSize=25;" vertex="1" parent="1">
          <mxGeometry x="340" y="440" width="40" height="20" as="geometry" />
        </mxCell>
        <mxCell id="CNCv2UfuMe8m7gtDJGFs-30" value="权限" style="html=1;whiteSpace=wrap;shape=isoCube2;backgroundOutline=1;isoAngle=15;sketch=1;fillColor=#e1d5e7;strokeColor=#994C00;" vertex="1" parent="1">
          <mxGeometry x="340" y="360" width="36.5" height="50" as="geometry" />
        </mxCell>
        <mxCell id="CNCv2UfuMe8m7gtDJGFs-31" value="业务code&lt;br style=&quot;font-size: 14px;&quot;&gt;操作描述&lt;br style=&quot;font-size: 14px;&quot;&gt;分片大小&lt;br style=&quot;font-size: 14px;&quot;&gt;任务配置&lt;br style=&quot;font-size: 14px;&quot;&gt;防重标识" style="text;html=1;strokeColor=none;fillColor=none;align=center;verticalAlign=middle;whiteSpace=wrap;rounded=0;sketch=1;fontSize=14;fontStyle=1" vertex="1" parent="1">
          <mxGeometry x="40" y="350" width="70" height="100" as="geometry" />
        </mxCell>
        <mxCell id="CNCv2UfuMe8m7gtDJGFs-33" value="一对一映射" style="text;html=1;align=center;verticalAlign=middle;resizable=0;points=[];autosize=1;fontSize=14;fontStyle=1;" vertex="1" parent="1">
          <mxGeometry x="405" y="375" width="90" height="20" as="geometry" />
        </mxCell>
        <mxCell id="CNCv2UfuMe8m7gtDJGFs-36" value="查询配置信息" style="text;html=1;align=center;verticalAlign=middle;resizable=0;points=[];autosize=1;fontSize=14;fontStyle=1;" vertex="1" parent="1">
          <mxGeometry x="238.25" y="295" width="110" height="20" as="geometry" />
        </mxCell>
        <mxCell id="CNCv2UfuMe8m7gtDJGFs-37" value="配置" style="html=1;whiteSpace=wrap;shape=isoCube2;backgroundOutline=1;isoAngle=15;sketch=1;fillColor=#dae8fc;strokeColor=#6c8ebf;" vertex="1" parent="1">
          <mxGeometry x="276.75" y="240" width="36.5" height="50" as="geometry" />
        </mxCell>
        <mxCell id="CNCv2UfuMe8m7gtDJGFs-40" value="任务处理器" style="html=1;whiteSpace=wrap;shape=isoCube2;backgroundOutline=1;isoAngle=15;sketch=1;fillColor=#dae8fc;strokeColor=#6c8ebf;" vertex="1" parent="1">
          <mxGeometry x="645" y="240" width="50" height="50" as="geometry" />
        </mxCell>
        <mxCell id="CNCv2UfuMe8m7gtDJGFs-41" value="查询任务处理器信息" style="text;html=1;align=center;verticalAlign=middle;resizable=0;points=[];autosize=1;fontSize=14;fontStyle=1;" vertex="1" parent="1">
          <mxGeometry x="600" y="295" width="150" height="20" as="geometry" />
        </mxCell>
        <mxCell id="CNCv2UfuMe8m7gtDJGFs-45" style="edgeStyle=orthogonalEdgeStyle;rounded=0;sketch=1;orthogonalLoop=1;jettySize=auto;html=1;exitX=1;exitY=0.5;exitDx=0;exitDy=0;fontSize=14;entryX=0.16;entryY=0.55;entryDx=0;entryDy=0;entryPerimeter=0;strokeColor=#994C00;" edge="1" parent="1" source="CNCv2UfuMe8m7gtDJGFs-42" target="CNCv2UfuMe8m7gtDJGFs-44">
          <mxGeometry relative="1" as="geometry">
            <mxPoint x="1050" y="219.16666666666674" as="targetPoint" />
          </mxGeometry>
        </mxCell>
        <mxCell id="CNCv2UfuMe8m7gtDJGFs-54" style="edgeStyle=none;rounded=0;sketch=1;orthogonalLoop=1;jettySize=auto;html=1;fontSize=14;exitX=0.75;exitY=1;exitDx=0;exitDy=0;entryX=0.5;entryY=0;entryDx=0;entryDy=0;strokeColor=#994C00;" edge="1" parent="1" source="CNCv2UfuMe8m7gtDJGFs-42" target="CNCv2UfuMe8m7gtDJGFs-56">
          <mxGeometry relative="1" as="geometry">
            <mxPoint x="840" y="330" as="targetPoint" />
          </mxGeometry>
        </mxCell>
        <mxCell id="CNCv2UfuMe8m7gtDJGFs-42" value="模板方法校验修改专属参数" style="rounded=0;whiteSpace=wrap;html=1;sketch=1;strokeWidth=1;fillColor=#d5e8d4;fontSize=14;strokeColor=#82b366;" vertex="1" parent="1">
          <mxGeometry x="750" y="188.75" width="120" height="60" as="geometry" />
        </mxCell>
        <mxCell id="CNCv2UfuMe8m7gtDJGFs-43" value="" style="endArrow=none;dashed=1;html=1;fontSize=14;strokeWidth=2;" edge="1" parent="1" source="CNCv2UfuMe8m7gtDJGFs-44">
          <mxGeometry width="50" height="50" relative="1" as="geometry">
            <mxPoint x="954.58" y="845" as="sourcePoint" />
            <mxPoint x="954.58" y="115" as="targetPoint" />
          </mxGeometry>
        </mxCell>
        <mxCell id="CNCv2UfuMe8m7gtDJGFs-48" style="edgeStyle=orthogonalEdgeStyle;rounded=0;sketch=1;orthogonalLoop=1;jettySize=auto;html=1;fontSize=14;" edge="1" parent="1" source="CNCv2UfuMe8m7gtDJGFs-44" target="CNCv2UfuMe8m7gtDJGFs-46">
          <mxGeometry relative="1" as="geometry" />
        </mxCell>
        <mxCell id="CNCv2UfuMe8m7gtDJGFs-52" style="rounded=0;sketch=1;orthogonalLoop=1;jettySize=auto;html=1;exitX=0;exitY=0;exitDx=0;exitDy=60;exitPerimeter=0;entryX=1.017;entryY=0.879;entryDx=0;entryDy=0;entryPerimeter=0;fontSize=14;strokeColor=#994C00;" edge="1" parent="1" source="CNCv2UfuMe8m7gtDJGFs-46" target="CNCv2UfuMe8m7gtDJGFs-42">
          <mxGeometry relative="1" as="geometry" />
        </mxCell>
        <mxCell id="CNCv2UfuMe8m7gtDJGFs-53" value="获取到快照信息" style="edgeLabel;html=1;align=center;verticalAlign=middle;resizable=0;points=[];fontSize=14;" vertex="1" connectable="0" parent="CNCv2UfuMe8m7gtDJGFs-52">
          <mxGeometry x="-0.1488" y="1" relative="1" as="geometry">
            <mxPoint as="offset" />
          </mxGeometry>
        </mxCell>
        <mxCell id="CNCv2UfuMe8m7gtDJGFs-57" style="edgeStyle=orthogonalEdgeStyle;rounded=0;sketch=1;orthogonalLoop=1;jettySize=auto;html=1;entryX=1;entryY=0.5;entryDx=0;entryDy=0;fontSize=14;strokeColor=#994C00;" edge="1" parent="1" source="CNCv2UfuMe8m7gtDJGFs-46" target="CNCv2UfuMe8m7gtDJGFs-62">
          <mxGeometry relative="1" as="geometry">
            <Array as="points">
              <mxPoint x="1130" y="480" />
            </Array>
          </mxGeometry>
        </mxCell>
        <mxCell id="CNCv2UfuMe8m7gtDJGFs-58" value="直接处理：查询所有id，" style="edgeLabel;html=1;align=center;verticalAlign=middle;resizable=0;points=[];fontSize=14;" vertex="1" connectable="0" parent="CNCv2UfuMe8m7gtDJGFs-57">
          <mxGeometry x="0.8419" y="2" relative="1" as="geometry">
            <mxPoint x="71.88" y="-2" as="offset" />
          </mxGeometry>
        </mxCell>
        <mxCell id="CNCv2UfuMe8m7gtDJGFs-46" value="&lt;font color=&quot;#333333&quot; style=&quot;font-size: 16px&quot;&gt;&lt;b&gt;门店id全选组件&lt;/b&gt;&lt;/font&gt;" style="shape=cube;whiteSpace=wrap;html=1;boundedLbl=1;backgroundOutline=1;darkOpacity=0.05;darkOpacity2=0.1;sketch=1;strokeWidth=1;fillColor=#cce5ff;fontSize=14;strokeColor=#36393d;" vertex="1" parent="1">
          <mxGeometry x="1050" y="175.01" width="150" height="74.99" as="geometry" />
        </mxCell>
        <mxCell id="CNCv2UfuMe8m7gtDJGFs-65" style="edgeStyle=orthogonalEdgeStyle;rounded=0;sketch=1;orthogonalLoop=1;jettySize=auto;html=1;fontSize=14;strokeColor=#994C00;" edge="1" parent="1" source="CNCv2UfuMe8m7gtDJGFs-56" target="CNCv2UfuMe8m7gtDJGFs-46">
          <mxGeometry relative="1" as="geometry">
            <Array as="points">
              <mxPoint x="1080" y="360" />
            </Array>
          </mxGeometry>
        </mxCell>
        <mxCell id="CNCv2UfuMe8m7gtDJGFs-66" value="直接处理：&lt;br&gt;查询落地的所有id" style="edgeLabel;html=1;align=center;verticalAlign=middle;resizable=0;points=[];fontSize=14;" vertex="1" connectable="0" parent="CNCv2UfuMe8m7gtDJGFs-65">
          <mxGeometry x="-0.6337" y="3" relative="1" as="geometry">
            <mxPoint x="27.5" y="-17" as="offset" />
          </mxGeometry>
        </mxCell>
        <mxCell id="CNCv2UfuMe8m7gtDJGFs-56" value="&lt;span&gt;判定处理模式&lt;/span&gt;" style="rhombus;whiteSpace=wrap;html=1;sketch=1;strokeWidth=1;fillColor=#d5e8d4;fontSize=14;strokeColor=#82b366;" vertex="1" parent="1">
          <mxGeometry x="780" y="320" width="120" height="80" as="geometry" />
        </mxCell>
        <mxCell id="CNCv2UfuMe8m7gtDJGFs-64" style="edgeStyle=orthogonalEdgeStyle;rounded=0;sketch=1;orthogonalLoop=1;jettySize=auto;html=1;exitX=0.5;exitY=1;exitDx=0;exitDy=0;entryX=0.5;entryY=0;entryDx=0;entryDy=0;fontSize=14;entryPerimeter=0;fontColor=#006600;labelBorderColor=none;strokeColor=#994C00;" edge="1" parent="1" source="CNCv2UfuMe8m7gtDJGFs-62" target="CNCv2UfuMe8m7gtDJGFs-80">
          <mxGeometry relative="1" as="geometry">
            <mxPoint x="840" y="540" as="targetPoint" />
          </mxGeometry>
        </mxCell>
        <mxCell id="CNCv2UfuMe8m7gtDJGFs-62" value="包装处理结果" style="rounded=0;whiteSpace=wrap;html=1;sketch=1;strokeWidth=1;fillColor=#d5e8d4;fontSize=14;strokeColor=#82b366;" vertex="1" parent="1">
          <mxGeometry x="780" y="450" width="120" height="60" as="geometry" />
        </mxCell>
        <mxCell id="CNCv2UfuMe8m7gtDJGFs-63" value="" style="edgeStyle=orthogonalEdgeStyle;rounded=0;sketch=1;orthogonalLoop=1;jettySize=auto;html=1;fontSize=14;strokeColor=#994C00;" edge="1" parent="1" source="CNCv2UfuMe8m7gtDJGFs-56" target="CNCv2UfuMe8m7gtDJGFs-62">
          <mxGeometry relative="1" as="geometry">
            <mxPoint x="840" y="425" as="sourcePoint" />
            <mxPoint x="840" y="540" as="targetPoint" />
            <Array as="points">
              <mxPoint x="840" y="420" />
              <mxPoint x="840" y="420" />
            </Array>
          </mxGeometry>
        </mxCell>
        <mxCell id="CNCv2UfuMe8m7gtDJGFs-67" value="异步任务：&lt;br&gt;超出直接处理大小" style="text;html=1;align=center;verticalAlign=middle;resizable=0;points=[];autosize=1;fontSize=14;" vertex="1" parent="1">
          <mxGeometry x="840" y="400" width="140" height="40" as="geometry" />
        </mxCell>
        <mxCell id="CNCv2UfuMe8m7gtDJGFs-68" value="" style="endArrow=none;dashed=1;html=1;fontSize=14;fontColor=#006600;labelBorderColor=none;strokeWidth=2;" edge="1" parent="1">
          <mxGeometry width="50" height="50" relative="1" as="geometry">
            <mxPoint x="40" y="530" as="sourcePoint" />
            <mxPoint x="1260" y="530" as="targetPoint" />
          </mxGeometry>
        </mxCell>
        <mxCell id="CNCv2UfuMe8m7gtDJGFs-93" style="edgeStyle=orthogonalEdgeStyle;rounded=0;sketch=1;orthogonalLoop=1;jettySize=auto;html=1;exitX=1;exitY=0.5;exitDx=0;exitDy=0;entryX=0;entryY=0.5;entryDx=0;entryDy=0;fontSize=14;fontColor=#006600;labelBorderColor=none;" edge="1" parent="1" source="CNCv2UfuMe8m7gtDJGFs-74" target="CNCv2UfuMe8m7gtDJGFs-75">
          <mxGeometry relative="1" as="geometry" />
        </mxCell>
        <mxCell id="CNCv2UfuMe8m7gtDJGFs-74" value="通用校验" style="whiteSpace=wrap;html=1;verticalAlign=top;sketch=1;labelBorderColor=none;fillColor=#f8cecc;strokeColor=#b85450;" vertex="1" parent="1">
          <mxGeometry x="218.25" y="603.76" width="150" height="22.5" as="geometry" />
        </mxCell>
        <mxCell id="CNCv2UfuMe8m7gtDJGFs-94" style="edgeStyle=orthogonalEdgeStyle;rounded=0;sketch=1;orthogonalLoop=1;jettySize=auto;html=1;fontSize=14;fontColor=#006600;labelBorderColor=none;" edge="1" parent="1" source="CNCv2UfuMe8m7gtDJGFs-75">
          <mxGeometry relative="1" as="geometry">
            <mxPoint x="605" y="500" as="targetPoint" />
            <Array as="points">
              <mxPoint x="610" y="615.0050000000001" />
              <mxPoint x="610" y="500" />
            </Array>
          </mxGeometry>
        </mxCell>
        <mxCell id="CNCv2UfuMe8m7gtDJGFs-75" value="查询&lt;br&gt;TaskHandle" style="shape=hexagon;perimeter=hexagonPerimeter2;whiteSpace=wrap;html=1;fixedSize=1;verticalAlign=top;sketch=1;labelBorderColor=none;fillColor=#f8cecc;strokeColor=#b85450;" vertex="1" parent="1">
          <mxGeometry x="475" y="589.38" width="130" height="51.25" as="geometry" />
        </mxCell>
        <mxCell id="CNCv2UfuMe8m7gtDJGFs-81" value="" style="edgeStyle=orthogonalEdgeStyle;rounded=0;sketch=1;orthogonalLoop=1;jettySize=auto;html=1;fontSize=14;fontColor=#006600;labelBorderColor=none;" edge="1" parent="1" source="CNCv2UfuMe8m7gtDJGFs-80" target="CNCv2UfuMe8m7gtDJGFs-74">
          <mxGeometry relative="1" as="geometry" />
        </mxCell>
        <mxCell id="CNCv2UfuMe8m7gtDJGFs-82" value="点击发起任务" style="edgeLabel;html=1;align=center;verticalAlign=middle;resizable=0;points=[];fontSize=14;fontColor=#006600;labelBorderColor=none;" vertex="1" connectable="0" parent="CNCv2UfuMe8m7gtDJGFs-81">
          <mxGeometry x="-0.2018" y="-1" relative="1" as="geometry">
            <mxPoint x="11.67" y="-1" as="offset" />
          </mxGeometry>
        </mxCell>
        <mxCell id="CNCv2UfuMe8m7gtDJGFs-80" value="管理员" style="shape=umlActor;verticalLabelPosition=bottom;verticalAlign=top;html=1;outlineConnect=0;sketch=1;labelBorderColor=none;fillColor=#d5e8d4;strokeColor=#82b366;" vertex="1" parent="1">
          <mxGeometry x="50" y="580.63" width="30" height="60" as="geometry" />
        </mxCell>
        <mxCell id="CNCv2UfuMe8m7gtDJGFs-87" style="rounded=0;sketch=1;orthogonalLoop=1;jettySize=auto;html=1;fontSize=14;entryX=0.167;entryY=0.022;entryDx=0;entryDy=0;entryPerimeter=0;exitX=0.384;exitY=1.005;exitDx=0;exitDy=0;exitPerimeter=0;fontColor=#006600;labelBorderColor=none;" edge="1" parent="1" source="CNCv2UfuMe8m7gtDJGFs-21" target="CNCv2UfuMe8m7gtDJGFs-74">
          <mxGeometry relative="1" as="geometry">
            <mxPoint x="240" y="510" as="sourcePoint" />
            <mxPoint x="237.87000000000012" y="585.3300000000003" as="targetPoint" />
            <Array as="points">
              <mxPoint x="246" y="584.85" />
            </Array>
          </mxGeometry>
        </mxCell>
        <mxCell id="CNCv2UfuMe8m7gtDJGFs-88" style="edgeStyle=none;rounded=0;sketch=1;orthogonalLoop=1;jettySize=auto;html=1;entryX=0.793;entryY=1.016;entryDx=0;entryDy=0;fontSize=14;entryPerimeter=0;exitX=0.813;exitY=0.022;exitDx=0;exitDy=0;exitPerimeter=0;fontColor=#006600;labelBorderColor=none;" edge="1" parent="1" source="CNCv2UfuMe8m7gtDJGFs-74" target="CNCv2UfuMe8m7gtDJGFs-21">
          <mxGeometry relative="1" as="geometry">
            <mxPoint x="340" y="589" as="sourcePoint" />
            <mxPoint x="339.5500000000002" y="491.3375" as="targetPoint" />
          </mxGeometry>
        </mxCell>
        <mxCell id="CNCv2UfuMe8m7gtDJGFs-89" value="查询配置信息" style="text;html=1;align=center;verticalAlign=middle;resizable=0;points=[];autosize=1;fontSize=14;fontStyle=1;fontColor=#006600;labelBorderColor=none;" vertex="1" parent="1">
          <mxGeometry x="238.25" y="579.72" width="110" height="20" as="geometry" />
        </mxCell>
        <mxCell id="CNCv2UfuMe8m7gtDJGFs-90" value="配置" style="html=1;whiteSpace=wrap;shape=isoCube2;backgroundOutline=1;isoAngle=15;sketch=1;fillColor=#e1d5e7;strokeColor=#9673a6;fontColor=#006600;labelBorderColor=none;" vertex="1" parent="1">
          <mxGeometry x="275" y="535" width="36.5" height="50" as="geometry" />
        </mxCell>
        <mxCell id="CNCv2UfuMe8m7gtDJGFs-91" value="任务处理器" style="html=1;whiteSpace=wrap;shape=isoCube2;backgroundOutline=1;isoAngle=15;sketch=1;fillColor=#dae8fc;strokeColor=#6c8ebf;fontColor=#006600;labelBorderColor=none;" vertex="1" parent="1">
          <mxGeometry x="633.25" y="547.85" width="50" height="50" as="geometry" />
        </mxCell>
        <mxCell id="CNCv2UfuMe8m7gtDJGFs-92" value="查询任务处理器信息" style="text;html=1;align=center;verticalAlign=middle;resizable=0;points=[];autosize=1;fontSize=14;fontStyle=1;fontColor=#006600;labelBorderColor=none;" vertex="1" parent="1">
          <mxGeometry x="600" y="619.72" width="150" height="20" as="geometry" />
        </mxCell>
        <mxCell id="CNCv2UfuMe8m7gtDJGFs-139" style="edgeStyle=orthogonalEdgeStyle;rounded=0;sketch=1;orthogonalLoop=1;jettySize=auto;html=1;strokeColor=#666666;strokeWidth=2;fontSize=20;" edge="1" parent="1" source="CNCv2UfuMe8m7gtDJGFs-96" target="CNCv2UfuMe8m7gtDJGFs-103">
          <mxGeometry relative="1" as="geometry">
            <Array as="points">
              <mxPoint x="820" y="700" />
            </Array>
          </mxGeometry>
        </mxCell>
        <mxCell id="CNCv2UfuMe8m7gtDJGFs-96" value="模板方法校验修改专属参数" style="rounded=0;whiteSpace=wrap;html=1;sketch=1;strokeWidth=1;fillColor=#f8cecc;fontSize=14;labelBorderColor=none;strokeColor=#b85450;" vertex="1" parent="1">
          <mxGeometry x="760" y="585" width="120" height="60" as="geometry" />
        </mxCell>
        <mxCell id="CNCv2UfuMe8m7gtDJGFs-110" style="edgeStyle=orthogonalEdgeStyle;rounded=0;sketch=1;orthogonalLoop=1;jettySize=auto;html=1;strokeColor=#994C00;strokeWidth=2;fontSize=14;fontColor=#006600;entryX=1;entryY=1;entryDx=0;entryDy=0;entryPerimeter=0;" edge="1" parent="1" source="CNCv2UfuMe8m7gtDJGFs-103" target="CNCv2UfuMe8m7gtDJGFs-80">
          <mxGeometry relative="1" as="geometry">
            <mxPoint x="100" y="640" as="targetPoint" />
            <Array as="points">
              <mxPoint x="70" y="700" />
              <mxPoint x="70" y="641" />
            </Array>
          </mxGeometry>
        </mxCell>
        <mxCell id="CNCv2UfuMe8m7gtDJGFs-103" value="封装任务发数据" style="rounded=0;whiteSpace=wrap;html=1;sketch=1;strokeWidth=1;fillColor=#f8cecc;fontSize=14;labelBorderColor=none;fontStyle=1;strokeColor=#b85450;" vertex="1" parent="1">
          <mxGeometry x="625" y="670" width="120" height="60" as="geometry" />
        </mxCell>
        <mxCell id="CNCv2UfuMe8m7gtDJGFs-111" style="edgeStyle=orthogonalEdgeStyle;rounded=0;sketch=1;orthogonalLoop=1;jettySize=auto;html=1;strokeWidth=2;fontSize=14;strokeColor=#0066CC;fontColor=#4D4D4D;fontStyle=1" edge="1" parent="1" source="CNCv2UfuMe8m7gtDJGFs-106" target="CNCv2UfuMe8m7gtDJGFs-112">
          <mxGeometry relative="1" as="geometry">
            <mxPoint x="830" y="800" as="targetPoint" />
          </mxGeometry>
        </mxCell>
        <mxCell id="CNCv2UfuMe8m7gtDJGFs-113" value="通用任务发起回调" style="edgeLabel;html=1;align=center;verticalAlign=middle;resizable=0;points=[];fontSize=14;fontColor=#4D4D4D;fontStyle=1" vertex="1" connectable="0" parent="CNCv2UfuMe8m7gtDJGFs-111">
          <mxGeometry x="0.1232" y="-3" relative="1" as="geometry">
            <mxPoint as="offset" />
          </mxGeometry>
        </mxCell>
        <mxCell id="CNCv2UfuMe8m7gtDJGFs-106" value="通用异步任务组件" style="shape=cube;whiteSpace=wrap;html=1;boundedLbl=1;backgroundOutline=1;darkOpacity=0.05;darkOpacity2=0.1;sketch=1;strokeWidth=1;fillColor=#dae8fc;fontSize=14;labelBorderColor=none;fontStyle=1;strokeColor=#6c8ebf;" vertex="1" parent="1">
          <mxGeometry x="1020" y="790.63" width="150" height="78.75" as="geometry" />
        </mxCell>
        <mxCell id="CNCv2UfuMe8m7gtDJGFs-116" style="edgeStyle=orthogonalEdgeStyle;rounded=0;sketch=1;orthogonalLoop=1;jettySize=auto;html=1;entryX=0.471;entryY=0.003;entryDx=0;entryDy=0;entryPerimeter=0;strokeColor=#0066CC;strokeWidth=2;fontSize=14;shape=link;fontColor=#4D4D4D;fontStyle=1" edge="1" parent="1" source="CNCv2UfuMe8m7gtDJGFs-107" target="CNCv2UfuMe8m7gtDJGFs-106">
          <mxGeometry relative="1" as="geometry" />
        </mxCell>
        <mxCell id="CNCv2UfuMe8m7gtDJGFs-117" style="edgeStyle=orthogonalEdgeStyle;rounded=0;sketch=1;orthogonalLoop=1;jettySize=auto;html=1;entryX=1;entryY=0.75;entryDx=0;entryDy=0;strokeColor=#0066CC;strokeWidth=2;fontSize=14;shape=link;fontColor=#4D4D4D;fontStyle=1" edge="1" parent="1" source="CNCv2UfuMe8m7gtDJGFs-107" target="CNCv2UfuMe8m7gtDJGFs-103">
          <mxGeometry relative="1" as="geometry" />
        </mxCell>
        <mxCell id="CNCv2UfuMe8m7gtDJGFs-122" style="edgeStyle=orthogonalEdgeStyle;rounded=0;sketch=1;orthogonalLoop=1;jettySize=auto;html=1;strokeColor=#0066CC;strokeWidth=2;fontSize=14;fontColor=#4D4D4D;fontStyle=1" edge="1" parent="1" source="CNCv2UfuMe8m7gtDJGFs-112" target="CNCv2UfuMe8m7gtDJGFs-120">
          <mxGeometry relative="1" as="geometry" />
        </mxCell>
        <mxCell id="CNCv2UfuMe8m7gtDJGFs-112" value="校验回调数据" style="rounded=0;whiteSpace=wrap;html=1;sketch=1;strokeWidth=1;fillColor=#dae8fc;fontSize=14;labelBorderColor=none;fontStyle=1;strokeColor=#6c8ebf;" vertex="1" parent="1">
          <mxGeometry x="705" y="801.25" width="120" height="60" as="geometry" />
        </mxCell>
        <mxCell id="CNCv2UfuMe8m7gtDJGFs-115" value="" style="endArrow=none;dashed=1;html=1;fontSize=14;labelBorderColor=none;strokeWidth=2;fontColor=#4D4D4D;fontStyle=1" edge="1" parent="1">
          <mxGeometry width="50" height="50" relative="1" as="geometry">
            <mxPoint x="30" y="770" as="sourcePoint" />
            <mxPoint x="1240" y="770" as="targetPoint" />
          </mxGeometry>
        </mxCell>
        <mxCell id="CNCv2UfuMe8m7gtDJGFs-107" value="dubbo" style="ellipse;shape=cloud;whiteSpace=wrap;html=1;sketch=1;strokeWidth=1;fillColor=#dae8fc;fontSize=14;strokeColor=#6c8ebf;labelBorderColor=none;fontColor=#4D4D4D;fontStyle=1" vertex="1" parent="1">
          <mxGeometry x="910" y="690" width="90" height="61.25" as="geometry" />
        </mxCell>
        <mxCell id="CNCv2UfuMe8m7gtDJGFs-118" value="" style="endArrow=none;dashed=1;html=1;fontSize=14;strokeWidth=2;fontColor=#4D4D4D;fontStyle=1" edge="1" parent="1" target="CNCv2UfuMe8m7gtDJGFs-107">
          <mxGeometry width="50" height="50" relative="1" as="geometry">
            <mxPoint x="960" y="920" as="sourcePoint" />
            <mxPoint x="954.5799999999999" y="115" as="targetPoint" />
          </mxGeometry>
        </mxCell>
        <mxCell id="CNCv2UfuMe8m7gtDJGFs-44" value="dubbo" style="ellipse;shape=cloud;whiteSpace=wrap;html=1;sketch=1;strokeWidth=1;fillColor=#dae8fc;fontSize=14;strokeColor=#6c8ebf;" vertex="1" parent="1">
          <mxGeometry x="910" y="184.38" width="90" height="61.25" as="geometry" />
        </mxCell>
        <mxCell id="CNCv2UfuMe8m7gtDJGFs-119" value="" style="endArrow=none;dashed=1;html=1;fontSize=14;strokeWidth=2;" edge="1" parent="1" source="CNCv2UfuMe8m7gtDJGFs-135" target="CNCv2UfuMe8m7gtDJGFs-44">
          <mxGeometry width="50" height="50" relative="1" as="geometry">
            <mxPoint x="955" y="680" as="sourcePoint" />
            <mxPoint x="954.5799999999999" y="115" as="targetPoint" />
          </mxGeometry>
        </mxCell>
        <mxCell id="CNCv2UfuMe8m7gtDJGFs-121" style="edgeStyle=orthogonalEdgeStyle;rounded=0;sketch=1;orthogonalLoop=1;jettySize=auto;html=1;entryX=0.555;entryY=1.037;entryDx=0;entryDy=0;entryPerimeter=0;strokeColor=#0066CC;strokeWidth=2;fontSize=14;fontColor=#006600;shape=link;" edge="1" parent="1" source="CNCv2UfuMe8m7gtDJGFs-120" target="CNCv2UfuMe8m7gtDJGFs-75">
          <mxGeometry relative="1" as="geometry" />
        </mxCell>
        <mxCell id="CNCv2UfuMe8m7gtDJGFs-124" style="edgeStyle=orthogonalEdgeStyle;rounded=0;sketch=1;orthogonalLoop=1;jettySize=auto;html=1;exitX=0;exitY=0.5;exitDx=0;exitDy=0;entryX=1;entryY=0.5;entryDx=0;entryDy=0;entryPerimeter=0;strokeColor=#0066CC;strokeWidth=2;fontSize=14;fontColor=#4D4D4D;fontStyle=1" edge="1" parent="1" source="CNCv2UfuMe8m7gtDJGFs-120" target="CNCv2UfuMe8m7gtDJGFs-123">
          <mxGeometry relative="1" as="geometry" />
        </mxCell>
        <mxCell id="CNCv2UfuMe8m7gtDJGFs-120" value="分发处理器" style="rounded=0;whiteSpace=wrap;html=1;sketch=1;strokeWidth=1;fillColor=#dae8fc;fontSize=14;labelBorderColor=none;fontStyle=1;strokeColor=#6c8ebf;" vertex="1" parent="1">
          <mxGeometry x="490" y="800" width="120" height="60" as="geometry" />
        </mxCell>
        <mxCell id="CNCv2UfuMe8m7gtDJGFs-125" style="edgeStyle=orthogonalEdgeStyle;rounded=0;sketch=1;orthogonalLoop=1;jettySize=auto;html=1;strokeColor=#0066CC;strokeWidth=2;fontSize=14;entryX=1;entryY=0.5;entryDx=0;entryDy=0;fontColor=#4D4D4D;fontStyle=1" edge="1" parent="1" source="CNCv2UfuMe8m7gtDJGFs-123" target="CNCv2UfuMe8m7gtDJGFs-126">
          <mxGeometry relative="1" as="geometry">
            <mxPoint x="330" y="831.25" as="targetPoint" />
          </mxGeometry>
        </mxCell>
        <mxCell id="CNCv2UfuMe8m7gtDJGFs-123" value="任务处理器" style="html=1;whiteSpace=wrap;shape=isoCube2;backgroundOutline=1;isoAngle=15;sketch=1;fillColor=#dae8fc;strokeColor=#6c8ebf;labelBorderColor=none;fontColor=#4D4D4D;fontStyle=1" vertex="1" parent="1">
          <mxGeometry x="380" y="806.25" width="50" height="50" as="geometry" />
        </mxCell>
        <mxCell id="CNCv2UfuMe8m7gtDJGFs-128" style="edgeStyle=orthogonalEdgeStyle;rounded=0;sketch=1;orthogonalLoop=1;jettySize=auto;html=1;entryX=0;entryY=0;entryDx=70;entryDy=80;entryPerimeter=0;strokeColor=#0066CC;strokeWidth=2;fontSize=14;fontColor=#4D4D4D;fontStyle=1" edge="1" parent="1" source="CNCv2UfuMe8m7gtDJGFs-126" target="CNCv2UfuMe8m7gtDJGFs-106">
          <mxGeometry relative="1" as="geometry">
            <Array as="points">
              <mxPoint x="248" y="891" />
              <mxPoint x="1100" y="891" />
              <mxPoint x="1100" y="871" />
            </Array>
          </mxGeometry>
        </mxCell>
        <mxCell id="CNCv2UfuMe8m7gtDJGFs-126" value="模板方法流程执行" style="rounded=0;whiteSpace=wrap;html=1;sketch=1;strokeColor=#6c8ebf;strokeWidth=1;fillColor=#dae8fc;fontSize=14;fontStyle=1" vertex="1" parent="1">
          <mxGeometry x="180" y="801" width="135" height="59" as="geometry" />
        </mxCell>
        <mxCell id="CNCv2UfuMe8m7gtDJGFs-131" value="第一阶段" style="text;html=1;strokeColor=none;fillColor=none;align=center;verticalAlign=middle;whiteSpace=wrap;rounded=0;sketch=1;fontSize=20;fontColor=#4D4D4D;fontStyle=1" vertex="1" parent="1">
          <mxGeometry x="1180" y="330" width="40" height="130" as="geometry" />
        </mxCell>
        <mxCell id="CNCv2UfuMe8m7gtDJGFs-132" value="第一阶段" style="text;html=1;strokeColor=none;fillColor=none;align=center;verticalAlign=middle;whiteSpace=wrap;rounded=0;sketch=1;fontSize=20;fontColor=#4D4D4D;fontStyle=1" vertex="1" parent="1">
          <mxGeometry x="1180" y="560" width="40" height="130" as="geometry" />
        </mxCell>
        <mxCell id="CNCv2UfuMe8m7gtDJGFs-133" value="第三阶段" style="text;html=1;strokeColor=none;fillColor=none;align=center;verticalAlign=middle;whiteSpace=wrap;rounded=0;sketch=1;fontSize=20;fontColor=#4D4D4D;fontStyle=1" vertex="1" parent="1">
          <mxGeometry x="1180" y="780" width="40" height="130" as="geometry" />
        </mxCell>
        <mxCell id="CNCv2UfuMe8m7gtDJGFs-134" value="&lt;font color=&quot;#333333&quot; style=&quot;font-size: 16px&quot;&gt;&lt;b&gt;门店id全选组件&lt;/b&gt;&lt;/font&gt;" style="shape=cube;whiteSpace=wrap;html=1;boundedLbl=1;backgroundOutline=1;darkOpacity=0.05;darkOpacity2=0.1;sketch=1;strokeWidth=1;fillColor=#cce5ff;fontSize=14;strokeColor=#36393d;" vertex="1" parent="1">
          <mxGeometry x="1030" y="577.52" width="150" height="74.99" as="geometry" />
        </mxCell>
        <mxCell id="CNCv2UfuMe8m7gtDJGFs-137" style="edgeStyle=orthogonalEdgeStyle;shape=link;rounded=0;sketch=1;orthogonalLoop=1;jettySize=auto;html=1;strokeColor=#666666;strokeWidth=2;fontSize=20;fontColor=#4D4D4D;" edge="1" parent="1" source="CNCv2UfuMe8m7gtDJGFs-135" target="CNCv2UfuMe8m7gtDJGFs-134">
          <mxGeometry relative="1" as="geometry" />
        </mxCell>
        <mxCell id="CNCv2UfuMe8m7gtDJGFs-138" style="edgeStyle=orthogonalEdgeStyle;shape=link;rounded=0;sketch=1;orthogonalLoop=1;jettySize=auto;html=1;entryX=1;entryY=0.5;entryDx=0;entryDy=0;strokeColor=#666666;strokeWidth=2;fontSize=20;fontColor=#4D4D4D;" edge="1" parent="1" source="CNCv2UfuMe8m7gtDJGFs-135" target="CNCv2UfuMe8m7gtDJGFs-96">
          <mxGeometry relative="1" as="geometry" />
        </mxCell>
        <mxCell id="CNCv2UfuMe8m7gtDJGFs-135" value="dubbo" style="ellipse;shape=cloud;whiteSpace=wrap;html=1;sketch=1;strokeWidth=1;fillColor=#dae8fc;fontSize=14;strokeColor=#6c8ebf;" vertex="1" parent="1">
          <mxGeometry x="910" y="583.75" width="90" height="61.25" as="geometry" />
        </mxCell>
        <mxCell id="CNCv2UfuMe8m7gtDJGFs-136" value="" style="endArrow=none;dashed=1;html=1;fontSize=14;strokeWidth=2;" edge="1" parent="1" source="CNCv2UfuMe8m7gtDJGFs-107" target="CNCv2UfuMe8m7gtDJGFs-135">
          <mxGeometry width="50" height="50" relative="1" as="geometry">
            <mxPoint x="955" y="690" as="sourcePoint" />
            <mxPoint x="955" y="245.62999999999988" as="targetPoint" />
          </mxGeometry>
        </mxCell>
      </root>
    </mxGraphModel>
  </diagram>
</mxfile>
